<mxfile host="app.diagrams.net" modified="2024-05-15T12:01:02.013Z" agent="Mozilla/5.0 (Windows NT 10.0; Win64; x64) AppleWebKit/537.36 (KHTML, like Gecko) Chrome/124.0.0.0 Safari/537.36" version="24.4.0" etag="i9UVguiBYHA5MJUc0O74" type="github">
  <diagram name="第 1 页" id="cl2Nq8hT9yDQPWIQD8CH">
    <mxGraphModel>
      <root>
        <mxCell id="0" />
        <mxCell id="1" parent="0" />
      </root>
    </mxGraphModel>
  </diagram>
</mxfile>
